<?xml version="1.0" encoding="utf-8"?>
<svg x="0pt" y="0pt" width="24pt" height="24pt" viewBox="0 0 24 24" xmlns="http://www.w3.org/2000/svg" xmlns:xlink="http://www.w3.org/1999/xlink">
  <!--Generated by AMDN-->
  <g id="Layer_1">
    <g id="Cube_Sides">
      <path id="Path" style="fill:#00a79e;fill-opacity:0.7;fill-rule:evenodd;opacity:1;stroke:none;" d="M3,3 C3,3,21,3,21,3 C21,3,21,21,21,21 C21,21,3,21,3,21 C3,21,3,3,3,3 z"/>
      <path id="Path-1" style="fill:#00a79e;fill-opacity:0.3;fill-rule:nonzero;opacity:1;stroke:none;" d="M23,1 C23,1,21,3,21,3 C21,3,21,21,21,21 C21,21,23,23,23,23 C23,23,23,1,23,1 z"/>
      <path id="Path_Copy" style="fill:#00a79e;fill-opacity:0.4;fill-rule:nonzero;opacity:1;stroke:none;" d="M23.0048,23 C23.0048,23,21.0048,21,21.0048,21 C21.0048,21,3.0048,21,3.0048,21 C3.0048,21,1.0048,23,1.0048,23 C1.0048,23,23.0048,23,23.0048,23 z"/>
      <path id="Path_Copy-1" style="fill:#00a79e;fill-opacity:0.2;fill-rule:nonzero;opacity:1;stroke:none;" d="M1.0096,23 C1.0096,23,3.0096,21,3.0096,21 C3.0096,21,3.0096,3,3.0096,3 C3.0096,3,1.0096,1,1.0096,1 C1.0096,1,1.0096,23,1.0096,23 z"/>
      <path id="Path_Copy_1" style="fill:#00a79e;fill-opacity:0.1;fill-rule:nonzero;opacity:1;stroke:none;" d="M1.0048,1 C1.0048,1,3.0048,3,3.0048,3 C3.0048,3,21.0048,3,21.0048,3 C21.0048,3,23.0048,1,23.0048,1 C23.0048,1,1.0048,1,1.0048,1 z"/>
    </g>
    <path id="Path-2" style="fill:none;opacity:1;stroke:#00a79e;stroke-linecap:round;stroke-linejoin:round;stroke-miterlimit:10;stroke-opacity:1;stroke-width:0.5;" d="M1,1 C1,1,3,3,3,3"/>
    <path id="Path-3" style="fill:none;opacity:1;stroke:#00a79e;stroke-linecap:round;stroke-linejoin:round;stroke-miterlimit:10;stroke-opacity:1;stroke-width:0.5;" d="M3,21 C3,21,1,23,1,23"/>
    <path id="Path-4" style="fill:none;opacity:1;stroke:#00a79e;stroke-linecap:round;stroke-linejoin:round;stroke-miterlimit:10;stroke-opacity:1;stroke-width:0.5;" d="M23,1 C23,1,21,3,21,3"/>
    <path id="Path-5" style="fill:none;opacity:1;stroke:#00a79e;stroke-linecap:round;stroke-linejoin:round;stroke-miterlimit:10;stroke-opacity:1;stroke-width:0.5;" d="M21,21 C21,21,23,23,23,23"/>
    <path id="Cube" style="fill:none;opacity:1;stroke:#00a79e;stroke-linecap:round;stroke-linejoin:round;stroke-miterlimit:10;stroke-opacity:1;stroke-width:0.5;" d="M3,3 C3,3,21,3,21,3 C21,3,21,21,21,21 C21,21,3,21,3,21 C3,21,3,3,3,3 z"/>
    <g id="Layer_1-1">
      <path id="Path-6" style="fill:#9e9e9e;fill-opacity:1;fill-rule:nonzero;opacity:1;stroke:#000000;stroke-linecap:round;stroke-linejoin:round;stroke-miterlimit:10;stroke-opacity:1;stroke-width:1;" d="M8.00478,14.2548 C8.00478,14.2548,5.00478,15.2548,5.00478,17.2548 C5.00478,19.2548,8.00478,19.2548,8.00478,19.2548"/>
      <path id="Path_Copy-2" style="fill:#9e9e9e;fill-opacity:1;fill-rule:nonzero;opacity:1;stroke:#000000;stroke-linecap:round;stroke-linejoin:round;stroke-miterlimit:10;stroke-opacity:1;stroke-width:1;" d="M16.0049,14.2548 C16.0049,14.2548,19.0049,15.2548,19.0049,17.2548 C19.0049,19.2548,16.0049,19.2548,16.0049,19.2548"/>
      <path id="Path-7" style="fill:#ffffff;fill-opacity:1;fill-rule:evenodd;opacity:1;stroke:#000000;stroke-linecap:round;stroke-linejoin:round;stroke-miterlimit:10;stroke-opacity:1;stroke-width:1;" d="M4.50478,4.84569 C4.50478,3.69091,5.40021,2.75478,6.50478,2.75478 C6.50478,2.75478,17.5048,2.75478,17.5048,2.75478 C18.6094,2.75478,19.5048,3.69091,19.5048,4.84569 C19.5048,4.84569,19.5048,12.1639,19.5048,12.1639 C19.5048,13.3187,18.6094,14.2548,17.5048,14.2548 C17.5048,14.2548,6.50478,14.2548,6.50478,14.2548 C5.40021,14.2548,4.50478,13.3186,4.50478,12.1639 C4.50478,12.1639,4.50478,4.84569,4.50478,4.84569 z"/>
      <path id="Path-8" style="fill:#ffffff;fill-opacity:1;fill-rule:nonzero;opacity:1;stroke:#000000;stroke-linecap:round;stroke-linejoin:round;stroke-miterlimit:10;stroke-opacity:1;stroke-width:1;" d="M12.0048,5.25478 C12.0048,5.25478,12.0048,11.2548,12.0048,11.2548"/>
      <path id="Path-9" style="fill:#ffffff;fill-opacity:1;fill-rule:nonzero;opacity:1;stroke:#000000;stroke-linecap:round;stroke-linejoin:round;stroke-miterlimit:10;stroke-opacity:1;stroke-width:1;" d="M14.0048,7.25478 C14.0048,7.25478,14.0048,8.25478,14.0048,8.25478"/>
      <path id="Path_Copy-3" style="fill:#ffffff;fill-opacity:1;fill-rule:nonzero;opacity:1;stroke:#000000;stroke-linecap:round;stroke-linejoin:round;stroke-miterlimit:10;stroke-opacity:1;stroke-width:1;" d="M10.0048,7.25478 C10.0048,7.25478,10.0048,8.25478,10.0048,8.25478"/>
      <path id="Path-10" style="fill:none;opacity:1;stroke:#000000;stroke-linecap:round;stroke-linejoin:round;stroke-miterlimit:10;stroke-opacity:1;stroke-width:1;" d="M16.0048,21.2548 C16.0048,21.2548,15.0048,20.2548,15.0048,20.2548 C15.0048,20.2548,14.0048,21.2548,14.0048,21.2548"/>
      <path id="Path_Copy-4" style="fill:none;opacity:1;stroke:#000000;stroke-linecap:round;stroke-linejoin:round;stroke-miterlimit:10;stroke-opacity:1;stroke-width:1;" d="M10.0048,21.2548 C10.0048,21.2548,9.00478,20.2548,9.00478,20.2548 C9.00478,20.2548,8.00478,21.2548,8.00478,21.2548"/>
      <path id="Path-11" style="fill:#e4e4e4;fill-opacity:1;fill-rule:evenodd;opacity:1;stroke:#000000;stroke-linecap:round;stroke-linejoin:round;stroke-miterlimit:10;stroke-opacity:1;stroke-width:1;" d="M8.00478,14.2548 C8.00478,14.2548,16.0048,14.2548,16.0048,14.2548 C16.0048,14.2548,16.0048,19.2548,16.0048,19.2548 C16.0048,19.2548,8.00478,19.2548,8.00478,19.2548 C8.00478,19.2548,8.00478,14.2548,8.00478,14.2548 z"/>
      <path id="Path_142" style="fill:#ff7bac;fill-opacity:0.75;fill-rule:evenodd;opacity:1;stroke:#000000;stroke-linecap:butt;stroke-linejoin:miter;stroke-miterlimit:10;stroke-opacity:1;stroke-width:1;" d="M11.9998,4.00001 C11.9958,4,11.9918,4,11.9878,4 C6.19347,4,3,4.72646,3,8.50028 C3,11.3851,4.65884,13.0006,7.27116,13 C9.88349,12.9994,10.6829,11.1309,11.9878,11.1307 C11.9918,11.1307,11.9959,11.1306,12,11.1305 C12.0041,11.1306,12.0082,11.1307,12.0122,11.1307 C13.3171,11.1309,14.1165,12.9994,16.7288,13 C19.3412,13.0006,21,11.3851,21,8.50028 C21,4.72646,17.8065,4,12.0122,4 C12.0081,4,12.0039,4,11.9998,4.00001 C11.9998,4.00001,11.9998,4.00001,11.9998,4.00001 z"/>
    </g>
    <path id="Path-12" style="fill:none;opacity:1;stroke:#00a79e;stroke-linecap:round;stroke-linejoin:round;stroke-miterlimit:10;stroke-opacity:1;stroke-width:0.5;" d="M1,1 C1,1,23,1,23,1 C23,1,23,23,23,23 C23,23,1,23,1,23 C1,23,1,1,1,1 z"/>
  </g>
</svg>
